HIERARCHY
ROOT root
{
	OFFSET 0.000000 0.000000 0.000000
	CHANNELS 6 Xposition Yposition Zposition Zrotation Yrotation Xrotation
	JOINT lhip
	{
		OFFSET 0.058581 -0.082280 -0.017664
		CHANNELS 3 Zrotation Yrotation Xrotation
		JOINT lknee
		{
			OFFSET 0.043451 -0.386469 0.008037
			CHANNELS 3 Zrotation Yrotation Xrotation
			JOINT lankle
			{
				OFFSET -0.014790 -0.426874 -0.037428
				CHANNELS 3 Zrotation Yrotation Xrotation
				JOINT ltoe
				{
					OFFSET 0.041054 -0.060286 0.122042
					CHANNELS 3 Zrotation Yrotation Xrotation
					End Site
					{
						OFFSET 0.000000 0.000000 0.000000
					}
				}
			}
		}
	}
	JOINT rhip
	{
		OFFSET -0.060310 -0.090513 -0.013543
		CHANNELS 3 Zrotation Yrotation Xrotation
		JOINT rknee
		{
			OFFSET -0.043257 -0.383688 -0.004843
			CHANNELS 3 Zrotation Yrotation Xrotation
			JOINT rankle
			{
				OFFSET 0.019056 -0.420046 -0.034562
				CHANNELS 3 Zrotation Yrotation Xrotation
				JOINT rtoe
				{
					OFFSET -0.034840 -0.062106 0.130323
					CHANNELS 3 Zrotation Yrotation Xrotation
					End Site
					{
						OFFSET 0.000000 0.000000 0.000000
					}
				}
			}
		}
	}
	JOINT lowerback
	{
		OFFSET 0.004439 0.124404 -0.038385
		CHANNELS 3 Zrotation Yrotation Xrotation
		JOINT upperback
		{
			OFFSET 0.004488 0.137956 0.026820
			CHANNELS 3 Zrotation Yrotation Xrotation
			JOINT chest
			{
				OFFSET -0.002265 0.056032 0.002855
				CHANNELS 3 Zrotation Yrotation Xrotation
				JOINT lowerneck
				{
					OFFSET -0.013390 0.211636 -0.033468
					CHANNELS 3 Zrotation Yrotation Xrotation
					JOINT upperneck
					{
						OFFSET 0.010113 0.088937 0.050410
						CHANNELS 3 Zrotation Yrotation Xrotation
						End Site
						{
							OFFSET 0.000000 0.000000 0.000000
						}
					}
				}
				JOINT lclavicle
				{
					OFFSET 0.071702 0.114000 -0.018898
					CHANNELS 3 Zrotation Yrotation Xrotation
					JOINT lshoulder
					{
						OFFSET 0.122921 0.045205 -0.019046
						CHANNELS 3 Zrotation Yrotation Xrotation
						JOINT lelbow
						{
							OFFSET 0.255332 -0.015649 -0.022946
							CHANNELS 3 Zrotation Yrotation Xrotation
							JOINT lwrist
							{
								OFFSET 0.265709 0.012698 -0.007375
								CHANNELS 3 Zrotation Yrotation Xrotation
								End Site
								{
									OFFSET 0.000000 0.000000 0.000000
								}
							}
						}
					}
				}
				JOINT rclavicle
				{
					OFFSET -0.082954 0.112472 -0.023707
					CHANNELS 3 Zrotation Yrotation Xrotation
					JOINT rshoulder
					{
						OFFSET -0.113228 0.046853 -0.008472
						CHANNELS 3 Zrotation Yrotation Xrotation
						JOINT relbow
						{
							OFFSET -0.260127 -0.014369 -0.031269
							CHANNELS 3 Zrotation Yrotation Xrotation
							JOINT rwrist
							{
								OFFSET -0.269108 0.006794 -0.006027
								CHANNELS 3 Zrotation Yrotation Xrotation
								End Site
								{
									OFFSET 0.000000 0.000000 0.000000
								}
							}
						}
					}
				}
			}
		}
	}
}
MOTION
Frames: 10
Frame Time: 0.033333
-0.042533 0.194530 0.992946 -142.800457 -0.577817 83.638969 -5.724334 1.793563 5.816883 -2.557033 -6.990767 10.314006 2.847610 12.537688 -12.786630 0.000000 -0.000000 0.000000 0.725338 5.160593 -22.005236 -4.249423 -5.987040 37.636807 2.559089 -14.205250 -9.172004 0.000000 -0.000000 0.000000 0.257158 -5.765860 14.494338 -3.432770 -0.139158 -0.042306 -0.435505 -2.017036 -4.130734 -2.663333 -4.949328 -0.412112 3.279381 5.205600 -0.588384 -31.916321 -5.665407 7.985036 -46.324333 -3.032908 4.404155 20.309370 -40.060030 -9.466576 1.238730 -8.993058 -1.914403 25.002803 11.126403 8.842308 53.247794 4.792051 11.925309 -3.321342 22.185154 3.114853 -1.157092 7.560379 10.933500 
-0.056887 0.214660 0.990265 -142.129189 -0.459246 83.577730 -5.133680 3.362198 7.558693 -2.589578 -7.931542 10.759093 2.543270 11.416015 -14.139558 0.000000 -0.000000 0.000000 0.955177 4.471678 -23.182801 -4.565285 -6.587124 29.416316 3.170517 -14.766198 -7.038229 0.000000 -0.000000 0.000000 0.426995 -6.185879 15.203926 -3.752924 -0.041248 -0.544690 -0.193138 -2.244464 -3.832322 -2.979662 -5.522136 -0.843119 3.788804 5.444630 -0.892925 -31.819836 -5.700892 8.219426 -46.021278 -3.964653 4.439662 20.629554 -42.035669 -10.113070 2.283924 -9.391335 -2.454601 25.083216 11.081376 8.961916 53.089903 4.727897 11.773235 -3.166525 22.337893 2.276423 -1.627705 7.934695 11.642949 
-0.071258 0.235740 0.986916 -141.395048 -0.533039 83.606699 -4.483920 5.273810 9.255936 -2.589767 -8.995912 11.256795 1.679297 9.908915 -15.273234 0.000000 -0.000000 0.000000 1.417272 2.703721 -23.710918 -4.793328 -6.628749 20.956577 3.986121 -13.677401 -3.435893 0.000000 -0.000000 0.000000 0.476848 -6.112165 15.710315 -4.057892 -0.260917 -0.937425 0.000156 -2.602110 -3.570560 -3.075029 -5.693563 -1.355673 4.321906 5.307514 -1.011803 -31.486802 -5.853072 8.222989 -46.021044 -4.510661 4.397636 20.710488 -43.553236 -9.948887 3.134046 -9.695084 -3.196220 25.033559 10.992094 8.880691 53.327794 4.525644 11.663253 -3.178077 22.055478 2.059064 -2.320956 7.056041 11.554362 
-0.085682 0.258288 0.983142 -140.621521 -0.614055 84.070652 -3.350467 7.482649 10.278873 -2.808534 -9.788601 12.330202 0.939486 7.858460 -16.286743 0.000000 -0.000000 0.000000 2.022961 0.683146 -24.110106 -4.626831 -5.616946 13.232478 4.366615 -12.139269 -2.042955 0.000000 -0.000000 0.000000 0.576095 -5.899832 15.413780 -4.259940 -0.544962 -0.949254 0.208081 -3.021636 -3.480356 -3.304512 -6.060542 -1.610570 4.840415 5.352430 -1.115451 -31.463844 -5.827820 8.454564 -46.032732 -5.014489 3.932133 20.440076 -44.461494 -9.302018 3.572166 -9.919389 -3.479431 25.150123 10.740521 9.173488 53.206966 4.422962 10.990381 -2.750903 22.087201 2.329721 -2.349891 7.185762 11.797283 
-0.100978 0.283165 0.979084 -139.343527 -0.914327 84.533515 -2.179758 9.312856 11.530405 -3.149525 -11.158703 13.264874 -0.071076 5.942768 -16.460578 0.000000 -0.000000 0.000000 1.860895 -0.554350 -24.236149 -4.055557 -5.155705 8.208340 4.652250 -10.952942 -1.942669 0.000000 -0.000000 0.000000 0.419817 -6.018482 14.805533 -4.368166 -0.819390 -0.877565 0.255048 -3.446614 -3.363713 -3.102492 -6.026084 -1.822869 4.943439 4.920604 -1.286097 -31.248592 -5.789244 8.613364 -46.359723 -5.229745 3.729501 19.983974 -44.461549 -8.104815 3.777808 -9.916805 -3.672179 25.197870 10.179614 9.091868 53.426444 4.193462 10.473189 -2.379032 21.875872 3.120341 -2.139369 7.086903 11.641250 
-0.116270 0.309256 0.976220 -138.041359 -1.023841 85.316230 -1.010761 9.704014 12.312773 -3.591148 -11.932632 14.509457 -0.859039 4.694558 -16.321289 0.000000 -0.000000 0.000000 1.650707 -0.493363 -24.635391 -3.856374 -4.874470 7.086852 4.526178 -11.113362 -1.871922 0.000000 -0.000000 0.000000 0.429956 -6.348465 13.713136 -4.232334 -1.045950 -0.571874 0.205601 -3.819285 -3.722650 -3.111940 -6.415034 -1.614988 5.021612 4.842132 -1.545003 -31.460879 -5.659412 9.167167 -46.654251 -5.170111 3.535753 19.795814 -43.494628 -7.618032 3.455582 -9.855547 -3.483710 25.208335 9.837546 9.260101 53.711341 3.654723 10.471314 -2.249959 21.654531 3.485919 -1.739369 6.768296 11.115970 
-0.133789 0.338264 0.974434 -136.929317 -1.085858 85.302818 0.194770 9.840024 14.160665 -3.642257 -12.988632 15.791971 -2.238522 4.086879 -15.395816 0.000000 -0.000000 0.000000 1.506278 0.227552 -24.204907 -4.356313 -5.617094 10.253718 4.051699 -11.668737 -1.984325 0.000000 -0.000000 0.000000 0.374262 -6.945636 12.988684 -4.112749 -1.114568 -0.050277 0.067615 -3.949301 -4.111587 -2.719078 -6.345292 -1.817296 4.697788 4.504726 -1.273597 -31.506046 -5.470105 9.402551 -47.182664 -4.439236 3.398144 19.699139 -41.841829 -7.115569 2.356146 -10.290147 -3.612676 24.883006 9.490279 8.953765 54.438493 2.702934 10.643375 -2.044202 21.273703 4.148677 -1.578597 7.074719 9.984025 
-0.151230 0.369150 0.974127 -136.245928 -0.738265 85.514505 1.533207 9.077409 15.173846 -3.847641 -13.364342 18.053605 -3.854139 3.804051 -13.277821 0.000000 -0.000000 0.000000 1.915251 1.349181 -23.830809 -5.230403 -7.514842 12.966254 3.322005 -12.982616 2.080078 0.000000 -0.000000 0.000000 0.604175 -7.608180 11.943246 -3.830808 -1.031428 0.400467 0.047958 -3.974820 -4.440788 -2.904976 -6.679649 -1.768460 4.477456 5.004483 -1.378415 -32.100563 -5.049030 9.717564 -47.476709 -3.443070 2.988123 19.478840 -39.873100 -7.122532 1.020704 -9.833739 -1.830652 25.080094 9.051939 8.825051 54.306707 1.991720 10.748526 -1.798257 20.884011 4.794258 -0.788668 6.758263 9.866056 
-0.168150 0.399712 0.977143 -135.956836 -0.023245 86.029087 2.684105 7.821398 14.071004 -4.125898 -12.092868 22.909793 -5.963914 4.055797 -9.072375 0.000000 -0.000000 0.000000 2.194568 2.605062 -23.641332 -4.028721 -6.990223 15.971336 1.486008 -13.787134 3.966210 0.000000 -0.000000 0.000000 1.022599 -8.007303 10.812361 -3.159086 -1.045214 0.616208 -0.035560 -3.918566 -4.839352 -2.777240 -6.514138 -2.165177 3.868556 5.324422 -0.519489 -32.877775 -4.563082 9.912760 -47.846217 -2.340363 2.869617 19.403100 -36.640226 -6.839955 -0.057348 -9.609984 -0.810954 25.822288 8.704909 9.125108 53.377117 1.953826 11.013783 -1.273296 19.562088 5.591440 -0.861887 6.201624 8.979609 
-0.185216 0.430497 0.981703 -136.205794 0.863365 86.796568 3.812643 6.641171 11.287260 -4.331211 -9.278789 29.403833 -7.813006 4.917293 -2.679602 0.000000 -0.000000 0.000000 3.234204 3.923601 -22.516068 -3.149061 -7.289198 17.181915 -1.361074 -13.691227 2.863996 0.000000 -0.000000 0.000000 1.788357 -8.079092 8.997772 -2.614375 -0.997436 1.105333 -0.202371 -3.545295 -5.372166 -3.022978 -6.413492 -1.479642 3.533482 5.518659 -0.317182 -32.468155 -3.757560 9.835695 -49.277280 -1.162552 2.775680 19.239705 -33.712319 -5.449354 -1.769452 -8.614690 -0.382711 25.276070 8.272412 9.344649 53.786307 2.123501 11.014012 -0.845697 18.483929 7.734589 -0.485280 5.708865 7.595089 
